<mxfile host="Electron" modified="2023-09-14T08:13:54.835Z" agent="Mozilla/5.0 (Windows NT 10.0; Win64; x64) AppleWebKit/537.36 (KHTML, like Gecko) draw.io/21.6.8 Chrome/114.0.5735.289 Electron/25.5.0 Safari/537.36" etag="5AdfgsHj0wz7wxbszzud" version="21.6.8" type="device">
  <diagram name="Страница 1" id="uI2hOludh4wVQmMtCGXj">
    <mxGraphModel dx="744" dy="900" grid="1" gridSize="10" guides="1" tooltips="1" connect="1" arrows="1" fold="1" page="1" pageScale="1" pageWidth="827" pageHeight="1169" math="0" shadow="0">
      <root>
        <mxCell id="0" />
        <mxCell id="1" parent="0" />
        <mxCell id="x1L5OYWKDPX-KCI-7Hu2-14" style="edgeStyle=orthogonalEdgeStyle;rounded=0;orthogonalLoop=1;jettySize=auto;html=1;entryX=0.5;entryY=0;entryDx=0;entryDy=0;" parent="1" source="x1L5OYWKDPX-KCI-7Hu2-1" target="x1L5OYWKDPX-KCI-7Hu2-4" edge="1">
          <mxGeometry relative="1" as="geometry" />
        </mxCell>
        <mxCell id="x1L5OYWKDPX-KCI-7Hu2-1" value="Сотрудник" style="shape=umlActor;verticalLabelPosition=bottom;verticalAlign=top;html=1;outlineConnect=0;" parent="1" vertex="1">
          <mxGeometry x="690" y="210" width="30" height="60" as="geometry" />
        </mxCell>
        <mxCell id="x1L5OYWKDPX-KCI-7Hu2-17" style="edgeStyle=orthogonalEdgeStyle;rounded=0;orthogonalLoop=1;jettySize=auto;html=1;" parent="1" source="x1L5OYWKDPX-KCI-7Hu2-2" target="x1L5OYWKDPX-KCI-7Hu2-8" edge="1">
          <mxGeometry relative="1" as="geometry" />
        </mxCell>
        <mxCell id="x1L5OYWKDPX-KCI-7Hu2-2" value="Кладовщик" style="shape=umlActor;verticalLabelPosition=bottom;verticalAlign=top;html=1;outlineConnect=0;" parent="1" vertex="1">
          <mxGeometry x="400" y="420" width="30" height="60" as="geometry" />
        </mxCell>
        <mxCell id="x1L5OYWKDPX-KCI-7Hu2-3" value="Клиент" style="shape=umlActor;verticalLabelPosition=bottom;verticalAlign=top;html=1;outlineConnect=0;" parent="1" vertex="1">
          <mxGeometry x="120" y="210" width="30" height="60" as="geometry" />
        </mxCell>
        <mxCell id="x1L5OYWKDPX-KCI-7Hu2-20" style="edgeStyle=orthogonalEdgeStyle;rounded=0;orthogonalLoop=1;jettySize=auto;html=1;" parent="1" source="x1L5OYWKDPX-KCI-7Hu2-4" target="x1L5OYWKDPX-KCI-7Hu2-2" edge="1">
          <mxGeometry relative="1" as="geometry" />
        </mxCell>
        <mxCell id="x1L5OYWKDPX-KCI-7Hu2-4" value="упаковывать компьюьтеры&lt;br&gt;согласно заказам" style="ellipse;whiteSpace=wrap;html=1;" parent="1" vertex="1">
          <mxGeometry x="645" y="410" width="120" height="80" as="geometry" />
        </mxCell>
        <mxCell id="x1L5OYWKDPX-KCI-7Hu2-6" value="собирать и&amp;nbsp;&lt;br&gt;тестировать&lt;br&gt;компьютеры" style="ellipse;whiteSpace=wrap;html=1;" parent="1" vertex="1">
          <mxGeometry x="230" y="20" width="120" height="80" as="geometry" />
        </mxCell>
        <mxCell id="x1L5OYWKDPX-KCI-7Hu2-7" value="принять заказ" style="ellipse;whiteSpace=wrap;html=1;" parent="1" vertex="1">
          <mxGeometry x="530" y="20" width="120" height="80" as="geometry" />
        </mxCell>
        <mxCell id="x1L5OYWKDPX-KCI-7Hu2-8" value="отгружать клиентам&lt;br&gt;заказы" style="ellipse;whiteSpace=wrap;html=1;" parent="1" vertex="1">
          <mxGeometry x="190" y="410" width="120" height="80" as="geometry" />
        </mxCell>
        <mxCell id="BKSN-OTEXAg_J8df_DkD-2" value="" style="endArrow=classic;html=1;rounded=0;" edge="1" parent="1" target="BKSN-OTEXAg_J8df_DkD-3">
          <mxGeometry width="50" height="50" relative="1" as="geometry">
            <mxPoint x="160" y="240" as="sourcePoint" />
            <mxPoint x="220" y="200" as="targetPoint" />
          </mxGeometry>
        </mxCell>
        <mxCell id="BKSN-OTEXAg_J8df_DkD-3" value="создание заказа на компьютер" style="ellipse;whiteSpace=wrap;html=1;" vertex="1" parent="1">
          <mxGeometry x="220" y="200" width="120" height="80" as="geometry" />
        </mxCell>
        <mxCell id="x1L5OYWKDPX-KCI-7Hu2-5" value="группировать&lt;span style=&quot;white-space: pre;&quot;&gt;&#x9;&lt;/span&gt;заказы&lt;br&gt;по типам&lt;br&gt;компьютеров&lt;br&gt;" style="ellipse;whiteSpace=wrap;html=1;" parent="1" vertex="1">
          <mxGeometry x="380" y="20" width="120" height="80" as="geometry" />
        </mxCell>
        <mxCell id="BKSN-OTEXAg_J8df_DkD-5" value="" style="endArrow=classic;html=1;rounded=0;entryX=0.988;entryY=0.653;entryDx=0;entryDy=0;entryPerimeter=0;" edge="1" parent="1" target="x1L5OYWKDPX-KCI-7Hu2-7">
          <mxGeometry width="50" height="50" relative="1" as="geometry">
            <mxPoint x="680" y="200" as="sourcePoint" />
            <mxPoint x="600" y="120" as="targetPoint" />
          </mxGeometry>
        </mxCell>
        <mxCell id="BKSN-OTEXAg_J8df_DkD-6" value="" style="endArrow=classic;html=1;rounded=0;entryX=0.982;entryY=0.643;entryDx=0;entryDy=0;entryPerimeter=0;" edge="1" parent="1" target="x1L5OYWKDPX-KCI-7Hu2-5">
          <mxGeometry width="50" height="50" relative="1" as="geometry">
            <mxPoint x="680" y="220" as="sourcePoint" />
            <mxPoint x="600" y="120" as="targetPoint" />
          </mxGeometry>
        </mxCell>
        <mxCell id="BKSN-OTEXAg_J8df_DkD-7" value="" style="endArrow=classic;html=1;rounded=0;entryX=0.967;entryY=0.625;entryDx=0;entryDy=0;entryPerimeter=0;" edge="1" parent="1" target="x1L5OYWKDPX-KCI-7Hu2-6">
          <mxGeometry width="50" height="50" relative="1" as="geometry">
            <mxPoint x="680" y="240" as="sourcePoint" />
            <mxPoint x="600" y="120" as="targetPoint" />
          </mxGeometry>
        </mxCell>
        <mxCell id="BKSN-OTEXAg_J8df_DkD-8" value="" style="endArrow=classic;html=1;rounded=0;" edge="1" parent="1">
          <mxGeometry width="50" height="50" relative="1" as="geometry">
            <mxPoint x="350" y="240" as="sourcePoint" />
            <mxPoint x="680" y="240" as="targetPoint" />
          </mxGeometry>
        </mxCell>
      </root>
    </mxGraphModel>
  </diagram>
</mxfile>
